<svg width="4098" height="3073" viewBox="0 0 4098 3073" fill="none" xmlns="http://www.w3.org/2000/svg">
<path d="M26.5 1702.5L1 1704.5V1H4097V1307L4093 1307.5L4089 1304L4079.5 1307.5L4075.5 1304L4071.5 1307.5L4067 1311.5H4057.5L4053.5 1307.5H4046.5L4044.5 1314.5L4040.5 1317L4037.5 1311.5V1325L4035.5 1329.5L4031 1327L4024.5 1331.5L4016.5 1336L4014 1334L4012 1327L4006.5 1331.5L4002 1339.5L3997.5 1343H3989L3980 1347.5L3972 1356H3964H3951.5V1358L3946 1363L3941.5 1366.5L3937.5 1358L3929 1366.5C3928.67 1365.33 3927.7 1363 3926.5 1363H3921.5L3916 1370.5L3911.5 1366.5L3907 1370.5L3901 1372.5H3893C3889.67 1372.33 3882.5 1372.1 3880.5 1372.5C3878.5 1372.9 3874.33 1375.33 3872.5 1376.5L3862.5 1378.5L3858 1384H3853.5L3847 1392.5C3845.83 1390.5 3843.5 1386 3843.5 1384C3843.5 1382 3835.83 1378.17 3832 1376.5L3826.5 1378.5C3824.67 1380.33 3820.9 1384.5 3820.5 1386.5C3820.1 1388.5 3818.67 1391.33 3818 1392.5L3811 1398L3805.5 1406.5H3798H3791H3782.5L3771 1414L3766 1406.5L3754.5 1402.5H3746.5L3733.5 1406.5H3723.5C3721.1 1406.5 3719.5 1404.67 3721.5 1402.5C3719.17 1401.67 3718.4 1397.6 3714 1398C3709.6 1398.4 3709.17 1399.5 3709.5 1400L3704.5 1402.5L3701 1412L3695.5 1416.5L3688.5 1420.5V1426L3683.5 1427.5C3683.5 1425.17 3683.1 1420.1 3681.5 1418.5C3679.5 1416.5 3676.5 1423 3674 1424C3671.5 1425 3668 1427.5 3659.5 1430.5C3651 1433.5 3658.5 1432.5 3657 1434.5C3655.8 1436.1 3654.17 1435.17 3653.5 1434.5L3641.5 1432.5L3645 1430.5L3648 1426C3648.5 1424.17 3649.2 1420.5 3648 1420.5H3641.5H3633.5C3631.9 1420.5 3630.17 1422.83 3629.5 1424C3629 1426.83 3628 1432.9 3628 1434.5C3628 1436.1 3624.33 1435.17 3622.5 1434.5L3618 1441L3615 1438.5L3611.5 1432.5H3606L3601.5 1430.5C3600.33 1429 3597.8 1425.4 3597 1423C3596.2 1420.6 3594.33 1416 3593.5 1414L3586.5 1410H3582.5C3581.5 1411.67 3579.5 1415.3 3579.5 1416.5V1426L3578.5 1430.5L3573.5 1434.5H3569L3554 1436L3552.5 1430.5L3545.5 1427.5L3542.5 1434.5V1441L3530 1443V1449.5L3525 1454.5V1452H3518.5L3510.5 1456.5C3510.83 1455 3511.3 1451.5 3510.5 1449.5C3509.7 1447.5 3505.83 1448.67 3504 1449.5L3501 1452V1456.5H3494.5L3492.5 1452L3490 1447.5L3484 1449.5L3487.5 1456.5L3478 1452L3464 1449.5L3451 1464.5H3442.5C3440.9 1464.5 3432.5 1466.17 3428.5 1467L3426.5 1472L3420.5 1470L3426.5 1462L3417.5 1460L3412.5 1456.5L3409.5 1464.5H3404L3400.5 1470L3395.5 1475.5H3390.5C3388.9 1475.5 3389.83 1473.17 3390.5 1472L3395.5 1470L3397.5 1464.5H3395.5L3390.5 1462L3384.5 1456.5L3375.5 1460L3369.5 1462L3364 1470L3366.5 1479.5L3364 1482.5L3358.5 1479.5L3356 1482.5L3329 1493L3326 1488V1479.5H3322.5L3318 1495L3312.5 1491L3309.5 1482.5H3298L3291 1486V1495H3287.5L3284.5 1491L3281 1486L3274.5 1491C3274.17 1489.5 3273.3 1485.7 3272.5 1482.5C3271.7 1479.3 3268.5 1481.17 3267 1482.5L3264.5 1491L3260 1493L3257 1495L3253 1500V1493L3243.5 1497L3237 1500L3232 1491L3230 1493L3225.5 1497L3223.5 1503.5L3220.5 1500L3208 1497L3194 1493L3191.5 1497H3183.5L3179.5 1500V1493H3174.5L3167.5 1497L3152 1503.5H3145L3143 1510L3135.5 1513L3132 1519.5L3128.5 1529L3122 1527.5L3119.5 1521.5L3110.5 1524L3108.5 1519.5L3106 1513L3099 1507.5L3092.5 1513L3083.5 1517V1526L3074.5 1529V1534.5H3069V1529L3065 1527.5C3064.5 1525.5 3063.5 1521.1 3063.5 1519.5C3063.5 1517.9 3052.5 1520.17 3047 1521.5L3044.5 1526L3042.5 1529L3044.5 1534.5H3039C3038.5 1533.33 3037.4 1530.6 3037 1529C3036.6 1527.4 3028.5 1528.33 3024.5 1529L3022 1534.5L3015.5 1529L3006.5 1536.5L2995 1521.5L2980 1542.5L2972.5 1539.5L2969 1545L2963 1542.5L2955.5 1536.5L2952 1545L2941 1547.5L2932.5 1552.5L2926.5 1542.5L2921 1536.5C2920.17 1535.67 2918.4 1533 2918 1529C2917.6 1525 2913.83 1527.33 2912 1529L2909.5 1539.5L2904 1536.5L2890.5 1539.5L2886.5 1542.5L2882 1534L2863.5 1539.5L2852.5 1542.5L2834.5 1549.5L2831 1552.5L2827 1557L2821.5 1547.5L2812 1557L2808 1552.5L2805.5 1559.5H2798L2792 1569L2788 1559.5L2770 1569L2763.5 1567L2761 1571.5L2750 1580H2743.5L2741 1589.5L2735.5 1584.5L2733.5 1594L2726.5 1596.5L2717 1599.5L2713.5 1610L2706.5 1626L2659.5 1636L2658.5 1627.5C2657.33 1626.5 2655 1624.2 2655 1623C2655 1621.8 2643.67 1621.83 2638 1622L2625.5 1623L2628.5 1615L2623 1610L2598 1607L2585 1605.5L2580.5 1610L2573.5 1611.5L2566 1624.5L2564.5 1615H2563L2561.5 1624.5L2554 1619.5L2548.5 1629.5L2539.5 1627.5L2538 1618L2532.5 1619.5L2527.5 1616.5H2520.5L2515 1610L2507.5 1611.5L2497 1610L2495.5 1605.5L2469.5 1619.5C2469.33 1617.33 2468.7 1612.7 2467.5 1611.5C2466.3 1610.3 2460.67 1614.33 2458 1616.5L2455.5 1627.5L2448 1629.5L2440 1624.5L2433 1627.5L2414.5 1624.5L2409 1614.5L2399.5 1611.5L2393.5 1607.5L2382.5 1610L2364 1593.5L2351.5 1595L2342 1600.5H2338.5L2320.5 1607.5L2317.5 1614.5H2301L2297 1617.5L2286.5 1621.5L2279 1619.5H2270.5L2267 1624.5H2258.5L2249 1638.5L2240.5 1641L2234 1635L2223.5 1638.5L2220.5 1644L2213.5 1642.5L2210.5 1646L2201 1647.5L2181.5 1653.5L2178.5 1652L2169.5 1649.5V1652L2163 1653.5L2155 1655L2139.5 1649.5L2128.5 1642.5C2130.17 1644.17 2130.6 1646.8 2119 1644C2104.5 1640.5 2104.5 1642 2101 1642.5C2098.2 1642.9 2097.83 1646 2098 1647.5H2089L2086 1649.5L2082 1647.5L2060 1637L2044 1617H2038.5L2028 1595L2030.5 1593.5L2028 1589.5L2024.5 1591.5L2019.5 1585.5L2015.5 1576.5H2013L2009.5 1570V1564H2001.5L2000 1566.5L1997 1564V1560L1972 1551L1966.5 1543L1959 1549H1953.5L1948.5 1551L1921 1530L1914 1528L1906 1522.5L1897.5 1524L1899.5 1532L1888 1530L1876 1524L1871.5 1528L1872.5 1536.5H1862.5C1856.83 1538 1844.8 1539.7 1842 1534.5C1839.2 1529.3 1813.5 1529.33 1801 1530V1536.5C1788 1551.33 1762 1586.4 1762 1608C1762 1629.6 1748.67 1643.33 1742 1647.5C1731.67 1653 1709.7 1662.5 1704.5 1656.5C1698 1649 1686.5 1649.5 1684.5 1649.5C1682.9 1649.5 1680.5 1650.83 1679.5 1651.5L1673.5 1649.5C1674.5 1648.5 1677.1 1645.4 1679.5 1641C1681.9 1636.6 1677.83 1639.17 1675.5 1641C1673.5 1642.83 1668.6 1646.5 1665 1646.5C1661.4 1646.5 1664.83 1644.5 1667 1643.5C1668.5 1641.83 1670.9 1637.9 1668.5 1635.5C1666.1 1633.1 1663.17 1638.17 1662 1641L1663.5 1634L1659 1632.5L1651.5 1643.5L1643 1642H1627C1626 1642.5 1623.5 1643 1621.5 1641C1619.5 1639 1617.67 1640.17 1617 1641C1617 1641.83 1615.9 1643 1611.5 1641C1606 1638.5 1606.5 1638.5 1601.5 1637.5C1597.5 1636.7 1591.17 1637.83 1588.5 1638.5L1584.5 1643.5C1582.83 1642.67 1577 1641.2 1567 1642C1557 1642.8 1548.83 1661 1546 1670L1535 1662.5L1529.5 1665L1522.5 1662.5L1509.5 1666.5L1497.5 1665L1494.5 1673.5C1486.83 1674.17 1471.2 1675.5 1470 1675.5C1468.8 1675.5 1467.5 1678.83 1467 1680.5L1422.5 1679L1412 1671.5L1389 1677L1381 1666.5L1376.5 1671.5H1371L1360 1674.5L1358 1679L1350.5 1669.5L1347 1675.5H1339L1333.5 1680.5H1329L1325.5 1679C1324 1679 1321.1 1678.6 1321.5 1677C1321.9 1675.4 1317.67 1676.33 1315.5 1677L1313 1680.5L1311 1677L1308 1680.5L1306 1679L1302.5 1680.5L1289.5 1677L1287.5 1669.5L1278 1674.5L1268 1675.5L1263 1679C1256.83 1678.33 1244.2 1677 1243 1677C1241.8 1677 1237.5 1681 1235.5 1683L1226.5 1679L1216.5 1686H1209L1199.5 1689L1181 1693L1164.5 1689L1159 1693H1150.5L1141 1694.5C1136.17 1694 1126.3 1693 1125.5 1693C1124.7 1693 1114.5 1691.33 1109.5 1690.5L1092 1686L1081.5 1684.5L1080.5 1686L1073.5 1684.5L1069.5 1677L1057.5 1675.5L1046 1680.5H1038L1027.5 1690H1017.5C1016.7 1690 1012.5 1693 1010.5 1694.5L1002.5 1693.5L993 1699L975.5 1693.5L968 1697L901 1699L880 1700.5L863.5 1697L857 1700.5L854 1696H833L829 1700.5L805 1697L789 1696L778.5 1691H762.5L752 1682.5H745L737.5 1680.5L730.5 1678.5L729 1674H712L709 1677.5H694H679L654.5 1680.5L643.5 1678.5L638.5 1680.5L623 1678.5L614.5 1680.5L612 1674H607L602 1677.5H592C591.2 1677.5 586 1680.83 583.5 1682.5V1678.5L580 1677.5L575 1680.5L561 1677.5L559 1671.5H546L545 1674H541L538 1667.5H529C528.167 1668.83 526.2 1671.5 525 1671.5C523.8 1671.5 517.167 1673.17 514 1674L512 1675.5L510.5 1674L503.5 1675.5L494.5 1691H486.5L468.5 1699.5L467 1695L461.5 1706L458 1707.5C455.833 1707.83 451.2 1708.5 450 1708.5C448.8 1708.5 443.167 1706.17 440.5 1705C438.333 1706.17 433.8 1708.5 433 1708.5C432.2 1708.5 429.333 1705.17 428 1703.5L411.5 1708.5L408 1706H400.5L395 1707.5L365.5 1706L362 1703.5L356.5 1705L346 1703.5L337 1705L330.5 1703.5L327 1705L317.5 1701.5L313.5 1705C310.5 1705.33 304.2 1706 303 1706C301.8 1706 297.5 1703 295.5 1701.5C294.333 1702.17 291.8 1703.5 291 1703.5C290 1703.5 282.5 1700 281 1700C279.8 1700 279.5 1702.33 279.5 1703.5L239.5 1697.5L236.5 1701.5L219 1697.5L204.5 1701.5L179.5 1695.5L175 1700L170 1701.5L161 1695.5L153.5 1701.5L146.5 1695.5L133 1695L130 1697.5H122L110 1689.5L81 1685L77.5 1691L69.5 1689.5L51 1701.5L37.5 1702.5L29 1698.5L26.5 1702.5Z" fill="white" stroke="white"/>
</svg>
