<svg width="4098" height="1702" viewBox="0 0 4098 1702" fill="none" xmlns="http://www.w3.org/2000/svg">
<path d="M118.5 1701.5H45.5H1V1H4097L4096.5 1303.5H4085.5L4069 1313.5C3958.67 1346.67 3735 1413.9 3723 1417.5C3708 1422 3455 1455.5 3436 1457.5C3420.8 1459.1 3223 1494.83 3126 1512.5L2959 1540.5H2891.5L2810 1565L2647 1629.5L2583.5 1602L2546.5 1629.5L2482 1602L2418.5 1629.5L2342.5 1602L2236 1629.5L2181 1660.5L2106.5 1644H2071C2048.83 1616 2003.5 1557.7 1999.5 1548.5C1995.5 1539.3 1964.5 1544.67 1949.5 1548.5L1891 1526L1855.5 1540.5H1794L1755.5 1644C1739.17 1649.5 1704.6 1660.5 1697 1660.5C1689.4 1660.5 1686.17 1649.5 1685.5 1644H1551.5V1660.5H1530.5L1456 1686L1276 1669.5L1108 1686H1040.5V1701.5H833L722.5 1669.5H516L447.5 1701.5H118.5Z" fill="white" stroke="white"/>
</svg>
