<svg width="1254" height="477" viewBox="0 0 1254 477" fill="none" xmlns="http://www.w3.org/2000/svg">
<path d="M3.5 476.5H0V0H1254V412L1253 412.5L1250 415.5H1246L1243.5 412.5L1240.5 417L1238 414L1235.5 415L1234.5 412.5L1232.5 415.5L1228.5 415L1224.5 410.5L1223.5 415L1213 412.5C1211.83 414.333 1209.3 418.1 1208.5 418.5C1207.7 418.9 1207.5 415.667 1207.5 414L1195 417C1194.5 415.167 1193.4 411.5 1193 411.5C1192.6 411.5 1188.83 410.833 1187 410.5L1181 415.5L1176.5 415L1146 411.5C1143.5 412.667 1138.3 415 1137.5 415C1136.7 415 1135.83 417.333 1135.5 418.5L1133.5 415L1132 418L1129.5 415H1127L1125 419.5L1123.5 412.5L1118 415L1115.5 418.5V415C1115.5 414.6 1111.83 414.167 1110 414C1109.83 415 1109.4 417.3 1109 418.5C1108.5 420 1106.5 419.5 1105.5 419.5C1104.5 419.5 1106.5 415.5 1106.5 415C1106.5 414.6 1103.17 414.833 1101.5 415L1099.5 418L1098.5 415.5H1094L1089 418L1088 415H1080.5H1073.5L1067.5 420.5L1060 417L1056.5 423L1050 416L1036 419.5H1024.5L1019.5 423.5L1018 421.5H1014L1009 423.5C1008 422 1005.9 418.9 1005.5 418.5C1005.1 418.1 1005 422 1005 424L1004 422H1001L997.5 420L996 425.5L994 424C993.667 424.5 992.9 425.7 992.5 426.5C992 427.5 992 424.5 992 424C992 423.6 990 422.5 989 422L987.5 424L985.5 419.5L978.5 420L973 424L968.5 423.5L963 419.5L964.5 424L957 425.5H952C950.833 426.667 948.5 429.1 948.5 429.5C948.5 429.9 946.5 427 945.5 425.5L940 426.5L938 430L935.5 426.5L933 428L929.5 430.5L927 423.5H921.5L915 427L914 431L911.5 429.5L908.5 427.5L904.5 430L899 430.5L894.5 429.5L893.5 423.5L888 425.5L880 428L871.5 427.5L865.5 426.5L862.5 429.5L860.5 432.5L858 429.5C857 429.5 854.9 429.6 854.5 430C854.1 430.4 853 430.833 852.5 431V425.5L848 424C847.833 425 847.4 427.1 847 427.5C846.6 427.9 838.833 429.667 835 430.5L830.5 424L827.5 426.5L825.5 429.5L822 425.5L819.5 430.5L818.5 427L816.5 430L815.5 425.5L810 426.5L808.5 430L805.5 431.5L801 425.5C800.5 427.333 799.4 431.2 799 432C798.5 433 797 427 797 426.5C797 426.1 795.333 429 794.5 430.5L791.5 431L791 428L789 426.5L788.5 427L786.5 432H785L783 427L781 429L779 429.5V432H776.5L776 429L771.5 429.5L769 424L766 425.5V430.5L764.5 430L761 432L760.5 429L754.5 428L750.5 432L747.5 433.5L745 425.5L743.5 433L741.5 432L740.5 428L739.5 431L738 429.5L736.5 434.5L735.5 430.5H730L728 427L725.5 435L724.5 432L721 433L720 435.5L717.5 430.5L714.5 434L713 436C713 435.667 712.8 434.6 712 433C711 431 708.5 432.5 707.5 432C706.7 431.6 704.833 435.833 704 438V435L701 433.5L699 437V435.5L696 434.5L695 436.5H690L686.5 434.5L686 439L683.5 434L683 435.5L680.5 434L679 437L677 436L676 437L674 434.5L668.5 437.5V435L661.5 439L659.5 437.5C658.5 438.167 656.4 439.4 656 439C655.6 438.6 654.5 436.5 654 435.5L648.5 437L646.5 435L644 434.5L643.5 438L639.5 435L638.5 436.5H634.5L624 435L618.5 436.5L611.5 434.5V437H604L603 434.5L601 434L598 436.5L594.5 437V434.5H591L590 436.5L578.5 436L577 434.5L574 434L573 436L570 436.5L568 434.5L565 435.5V433.5L561.5 433C560.833 434.167 559.5 436.3 559.5 435.5C559.5 434.7 558.167 433.833 557.5 433.5L557 436.5L553 437L552 436.5L551 437L549.5 434.5L547 435.5L545.5 432L543.5 435.5L541.5 433.5L540 435L539.5 437H538.5L537.5 433L534 436.5L531.5 435L529.5 436.5L528 434.5L526.5 435.5L525 433L522.5 432L521 435L519.5 434.5L518.5 435.5L517 435L516 436.5L515.5 433L512 435L510.5 437L509.5 433H506.5L503.5 437L500.5 435L500 436.5L497.5 435.5L494.5 435L492.5 436.5L491 435H488.5L486 436.5L484 435H482L478.5 436.5L476.5 438L472.5 438.5L470.5 437L469.5 440.5L468 438.5L466 440L464 438.5L461.5 437L460 439.5L456 438L453 440L452 437L449.5 439.5L449 438L447 438.5L446 441.5L444 442.5L442 438.5L439.5 440.5L436.5 441.5L424.5 442.5L421 438.5L420 440.5L417.5 440L417 438.5H415.5L413.5 440L411 437H406L403 440L400.5 436.5L399.5 438L396 436.5L394.5 438L392 436.5L390.5 440L389 438L386.5 438.5L382.5 436.5L380.5 440L377 441L375.5 442.5L372 440H364.5L353.5 444.5L352.5 443L349 442.5L347 445.5L345.5 444.5L339.5 442L337.5 444.5V441L333.5 443.5L330 443L329.5 444.5H326L320 446.5L319.5 444.5L317.5 446.5L316.5 444.5L314 447.5V444.5C314 443.7 311.667 444.167 310.5 444.5L307 447L304.5 443.5L303.5 445.5H301L299 447.5L296.5 447L295.5 443.5L292.5 443L290 449L287 444.5L283 447.5L279 443.5L277 444.5L276.5 447.5L274.5 445.5L274 447L272 446.5L267 443.5L266.5 446.5L264 444.5L260 447C259.333 446.667 258 445.9 258 445.5C258 445.1 256.333 446.333 255.5 447L254.5 444.5L252 446.5L248.5 446L246.5 447.5L238.5 448L238 446L236 449L234.5 446.5L233 447.5L230 446.5L229.5 447C228.833 447.167 227.4 447.5 227 447.5C226.6 447.5 225.833 447.833 225.5 448L221.5 447.5L221 449L219 449.5L217.5 447L215.5 447.5L215 450L212.5 447.5L212 449.5L208.5 448L207 451.5L206 449.5L199.5 448L197 450.5L195.5 448H191.5L189 451.5L186.5 450.5L185.5 453L183.5 449.5H179L178 451.5L175.5 452L173.5 451.5L172 453L170.5 450.5L169.5 453L167.5 450.5V453L166 451.5H163.5L162.5 454L158.5 452L157 454L153 453L152 451.5L151.5 455L149 455.5L147.5 452L144.5 455.5L139.5 454L136 455.5L133.5 458.5V455.5L130.5 456.5L129 458.5L127.5 456.5L123.5 459.5L119.5 461L117 459.5L114.5 461.5L113.5 459.5L108 462.5L106.5 458.5L105.5 461.5L102 463L98 461.5L96.5 464.5L93 461L90.5 463L88.5 462.5L86 465.5L84 463L81 466.5H75L73.5 465.5L70 469L69 468L65 469.5L61 469L58.5 469.5L57.5 470.5L56 469.5H53L51.5 472L47 469L46 471.5L44 470.5L40.5 472.5L37.5 470.5L34.5 472.5L33.5 472L32.5 472.5L30.5 471L28.5 473.5L26.5 473L25 474L24 473.5L23.5 475H20.5L18 474L17 475H14.5L7.5 474V476L5 475L3.5 476.5Z" fill="white"/>
</svg>
